<?xml version="1.0" encoding="UTF-8" standalone="no"?>
<!DOCTYPE svg PUBLIC "-//W3C//DTD SVG 1.1//EN"
 "http://www.w3.org/Graphics/SVG/1.1/DTD/svg11.dtd">
<!-- Generated by graphviz version 5.0.0 (20220707.1540)
 -->
<!-- Title: dependencies Pages: 1 -->
<svg width="540pt" height="174pt"
 viewBox="0.00 0.00 540.00 173.80" xmlns="http://www.w3.org/2000/svg" xmlns:xlink="http://www.w3.org/1999/xlink">
<g id="graph0" class="graph" transform="scale(1 1) rotate(0) translate(4 169.8)">
<title>dependencies</title>
<polygon fill="white" stroke="transparent" points="-4,4 -4,-169.8 536,-169.8 536,4 -4,4"/>
<text text-anchor="middle" x="266" y="-8.2" font-family="sans-serif" font-size="14.00">dependencies</text>
<g id="clust1" class="cluster">
<title>cluster_DashboardModule</title>
<polygon fill="none" stroke="black" stroke-dasharray="1,5" points="8,-32.8 8,-157.8 524,-157.8 524,-32.8 8,-32.8"/>
</g>
<g id="clust5" class="cluster">
<title>cluster_DashboardModule_imports</title>
<polygon fill="none" stroke="black" points="334,-40.8 334,-92.8 516,-92.8 516,-40.8 334,-40.8"/>
</g>
<g id="clust2" class="cluster">
<title>cluster_DashboardModule_declarations</title>
<polygon fill="none" stroke="black" points="16,-40.8 16,-92.8 326,-92.8 326,-40.8 16,-40.8"/>
</g>
<!-- DashboardComponent -->
<g id="node1" class="node">
<title>DashboardComponent</title>
<polygon fill="#ffffb3" stroke="black" points="317.98,-84.8 176.02,-84.8 176.02,-48.8 317.98,-48.8 317.98,-84.8"/>
<text text-anchor="middle" x="247" y="-62.6" font-family="Times,serif" font-size="14.00">DashboardComponent</text>
</g>
<!-- DashboardModule -->
<g id="node3" class="node">
<title>DashboardModule</title>
<polygon fill="#8dd3c7" stroke="black" points="307.2,-149.8 304.2,-153.8 283.2,-153.8 280.2,-149.8 186.8,-149.8 186.8,-113.8 307.2,-113.8 307.2,-149.8"/>
<text text-anchor="middle" x="247" y="-127.6" font-family="Times,serif" font-size="14.00">DashboardModule</text>
</g>
<!-- DashboardComponent&#45;&gt;DashboardModule -->
<g id="edge1" class="edge">
<title>DashboardComponent&#45;&gt;DashboardModule</title>
<path fill="none" stroke="black" d="M247,-84.91C247,-84.91 247,-103.79 247,-103.79"/>
<polygon fill="black" stroke="black" points="243.5,-103.79 247,-113.79 250.5,-103.79 243.5,-103.79"/>
</g>
<!-- MapviewComponent -->
<g id="node2" class="node">
<title>MapviewComponent</title>
<polygon fill="#ffffb3" stroke="black" points="158.21,-84.8 23.79,-84.8 23.79,-48.8 158.21,-48.8 158.21,-84.8"/>
<text text-anchor="middle" x="91" y="-62.6" font-family="Times,serif" font-size="14.00">MapviewComponent</text>
</g>
<!-- MapviewComponent&#45;&gt;DashboardModule -->
<g id="edge2" class="edge">
<title>MapviewComponent&#45;&gt;DashboardModule</title>
<path fill="none" stroke="black" d="M91,-84.91C91,-104.14 91,-131.8 91,-131.8 91,-131.8 176.69,-131.8 176.69,-131.8"/>
<polygon fill="black" stroke="black" points="176.69,-135.3 186.69,-131.8 176.69,-128.3 176.69,-135.3"/>
</g>
<!-- DashboardRoutingModule -->
<g id="node4" class="node">
<title>DashboardRoutingModule</title>
<polygon fill="#8dd3c7" stroke="black" points="507.82,-84.8 504.82,-88.8 483.82,-88.8 480.82,-84.8 342.18,-84.8 342.18,-48.8 507.82,-48.8 507.82,-84.8"/>
<text text-anchor="middle" x="425" y="-62.6" font-family="Times,serif" font-size="14.00">DashboardRoutingModule</text>
</g>
<!-- DashboardRoutingModule&#45;&gt;DashboardModule -->
<g id="edge3" class="edge">
<title>DashboardRoutingModule&#45;&gt;DashboardModule</title>
<path fill="none" stroke="black" d="M425,-84.91C425,-104.14 425,-131.8 425,-131.8 425,-131.8 317.26,-131.8 317.26,-131.8"/>
<polygon fill="black" stroke="black" points="317.26,-128.3 307.26,-131.8 317.26,-135.3 317.26,-128.3"/>
</g>
</g>
</svg>
