<?xml version="1.0" encoding="UTF-8" standalone="no"?>
<!DOCTYPE svg PUBLIC "-//W3C//DTD SVG 1.1//EN"
 "http://www.w3.org/Graphics/SVG/1.1/DTD/svg11.dtd">
<!-- Generated by graphviz version 5.0.0 (20220707.1540)
 -->
<!-- Title: dependencies Pages: 1 -->
<svg width="728pt" height="247pt"
 viewBox="0.00 0.00 728.00 246.80" xmlns="http://www.w3.org/2000/svg" xmlns:xlink="http://www.w3.org/1999/xlink">
<g id="graph0" class="graph" transform="scale(1 1) rotate(0) translate(4 242.8)">
<title>dependencies</title>
<polygon fill="white" stroke="transparent" points="-4,4 -4,-242.8 724,-242.8 724,4 -4,4"/>
<text text-anchor="middle" x="360" y="-8.2" font-family="sans-serif" font-size="14.00">dependencies</text>
<g id="clust1" class="cluster">
<title>cluster_AppModule</title>
<polygon fill="none" stroke="black" stroke-dasharray="1,5" points="8,-32.8 8,-230.8 712,-230.8 712,-32.8 8,-32.8"/>
</g>
<g id="clust2" class="cluster">
<title>cluster_AppModule_declarations</title>
<polygon fill="none" stroke="black" points="442,-40.8 442,-92.8 704,-92.8 704,-40.8 442,-40.8"/>
</g>
<g id="clust5" class="cluster">
<title>cluster_AppModule_imports</title>
<polygon fill="none" stroke="black" points="16,-40.8 16,-92.8 434,-92.8 434,-40.8 16,-40.8"/>
</g>
<g id="clust7" class="cluster">
<title>cluster_AppModule_bootstrap</title>
<polygon fill="none" stroke="black" points="300,-170.8 300,-222.8 424,-222.8 424,-170.8 300,-170.8"/>
</g>
<!-- AppComponent -->
<g id="node1" class="node">
<title>AppComponent</title>
<polygon fill="#ffffb3" stroke="black" points="695.94,-84.8 590.06,-84.8 590.06,-48.8 695.94,-48.8 695.94,-84.8"/>
<text text-anchor="middle" x="643" y="-62.6" font-family="Times,serif" font-size="14.00">AppComponent</text>
</g>
<!-- AppModule -->
<g id="node3" class="node">
<title>AppModule</title>
<polygon fill="#8dd3c7" stroke="black" points="403.66,-149.8 400.66,-153.8 379.66,-153.8 376.66,-149.8 320.34,-149.8 320.34,-113.8 403.66,-113.8 403.66,-149.8"/>
<text text-anchor="middle" x="362" y="-127.6" font-family="Times,serif" font-size="14.00">AppModule</text>
</g>
<!-- AppComponent&#45;&gt;AppModule -->
<g id="edge1" class="edge">
<title>AppComponent&#45;&gt;AppModule</title>
<path fill="none" stroke="black" d="M643,-85.08C643,-106.12 643,-137.8 643,-137.8 643,-137.8 413.77,-137.8 413.77,-137.8"/>
<polygon fill="black" stroke="black" points="413.77,-134.3 403.77,-137.8 413.77,-141.3 413.77,-134.3"/>
</g>
<!-- HeaderComponent -->
<g id="node2" class="node">
<title>HeaderComponent</title>
<polygon fill="#ffffb3" stroke="black" points="571.75,-84.8 450.25,-84.8 450.25,-48.8 571.75,-48.8 571.75,-84.8"/>
<text text-anchor="middle" x="511" y="-62.6" font-family="Times,serif" font-size="14.00">HeaderComponent</text>
</g>
<!-- HeaderComponent&#45;&gt;AppModule -->
<g id="edge2" class="edge">
<title>HeaderComponent&#45;&gt;AppModule</title>
<path fill="none" stroke="black" d="M511,-84.82C511,-102.17 511,-125.8 511,-125.8 511,-125.8 413.9,-125.8 413.9,-125.8"/>
<polygon fill="black" stroke="black" points="413.9,-122.3 403.9,-125.8 413.9,-129.3 413.9,-122.3"/>
</g>
<!-- AppComponent  -->
<g id="node7" class="node">
<title>AppComponent </title>
<polygon fill="#80b1d3" stroke="black" points="416.44,-214.8 307.56,-214.8 307.56,-178.8 416.44,-178.8 416.44,-214.8"/>
<text text-anchor="middle" x="362" y="-192.6" font-family="Times,serif" font-size="14.00">AppComponent </text>
</g>
<!-- AppModule&#45;&gt;AppComponent  -->
<g id="edge6" class="edge">
<title>AppModule&#45;&gt;AppComponent </title>
<path fill="none" stroke="black" stroke-dasharray="1,5" d="M362,-149.91C362,-149.91 362,-168.79 362,-168.79"/>
<polygon fill="black" stroke="black" points="358.5,-168.79 362,-178.79 365.5,-168.79 358.5,-168.79"/>
</g>
<!-- AppRoutingModule -->
<g id="node4" class="node">
<title>AppRoutingModule</title>
<polygon fill="#8dd3c7" stroke="black" points="426.28,-84.8 423.28,-88.8 402.28,-88.8 399.28,-84.8 297.72,-84.8 297.72,-48.8 426.28,-48.8 426.28,-84.8"/>
<text text-anchor="middle" x="362" y="-62.6" font-family="Times,serif" font-size="14.00">AppRoutingModule</text>
</g>
<!-- AppRoutingModule&#45;&gt;AppModule -->
<g id="edge3" class="edge">
<title>AppRoutingModule&#45;&gt;AppModule</title>
<path fill="none" stroke="black" d="M362,-84.91C362,-84.91 362,-103.79 362,-103.79"/>
<polygon fill="black" stroke="black" points="358.5,-103.79 362,-113.79 365.5,-103.79 358.5,-103.79"/>
</g>
<!-- DashboardModule -->
<g id="node5" class="node">
<title>DashboardModule</title>
<polygon fill="#8dd3c7" stroke="black" points="280.2,-84.8 277.2,-88.8 256.2,-88.8 253.2,-84.8 159.8,-84.8 159.8,-48.8 280.2,-48.8 280.2,-84.8"/>
<text text-anchor="middle" x="220" y="-62.6" font-family="Times,serif" font-size="14.00">DashboardModule</text>
</g>
<!-- DashboardModule&#45;&gt;AppModule -->
<g id="edge4" class="edge">
<title>DashboardModule&#45;&gt;AppModule</title>
<path fill="none" stroke="black" d="M220,-84.82C220,-102.17 220,-125.8 220,-125.8 220,-125.8 310.16,-125.8 310.16,-125.8"/>
<polygon fill="black" stroke="black" points="310.16,-129.3 320.16,-125.8 310.16,-122.3 310.16,-129.3"/>
</g>
<!-- FieldworkModule -->
<g id="node6" class="node">
<title>FieldworkModule</title>
<polygon fill="#8dd3c7" stroke="black" points="141.6,-84.8 138.6,-88.8 117.6,-88.8 114.6,-84.8 24.4,-84.8 24.4,-48.8 141.6,-48.8 141.6,-84.8"/>
<text text-anchor="middle" x="83" y="-62.6" font-family="Times,serif" font-size="14.00">FieldworkModule</text>
</g>
<!-- FieldworkModule&#45;&gt;AppModule -->
<g id="edge5" class="edge">
<title>FieldworkModule&#45;&gt;AppModule</title>
<path fill="none" stroke="black" d="M83,-85.08C83,-106.12 83,-137.8 83,-137.8 83,-137.8 310.23,-137.8 310.23,-137.8"/>
<polygon fill="black" stroke="black" points="310.23,-141.3 320.23,-137.8 310.23,-134.3 310.23,-141.3"/>
</g>
</g>
</svg>
